# Blender 4.1.1
# www.blender.org
mtllib queen.mtl
o Cube
v -0.276616 -0.276616 0.276616
v -0.276616 0.276616 0.276616
v -0.276616 -0.276616 -0.276616
v -0.276616 0.276616 -0.276616
v 0.276616 -0.276616 0.276616
v 0.276616 0.276616 0.276616
v 0.276616 -0.276616 -0.276616
v 0.276616 0.276616 -0.276616
v -0.415917 0.975424 0.415917
v -0.415917 0.975424 -0.415917
v 0.415917 0.975424 0.415917
v 0.415917 0.975424 -0.415917
v -0.468306 1.638278 0.468306
v -0.468306 1.638278 -0.468306
v 0.468306 1.638278 0.468306
v 0.468306 1.638278 -0.468306
v -0.095258 2.505381 0.095258
v -0.095258 2.505381 -0.095258
v 0.095258 2.505381 0.095258
v 0.095258 2.505381 -0.095258
vn -1.0000 -0.0000 -0.0000
vn -0.0000 -0.0000 -1.0000
vn 1.0000 -0.0000 -0.0000
vn -0.0000 -0.0000 1.0000
vn -0.0000 -1.0000 -0.0000
vn -0.0000 -0.1955 -0.9807
vn -0.0000 -0.0788 -0.9969
vn 0.9807 -0.1955 -0.0000
vn -0.9807 -0.1955 -0.0000
vn -0.0000 -0.1955 0.9807
vn -0.0000 -0.0788 0.9969
vn 0.9186 0.3952 -0.0000
vn -0.0000 0.3952 -0.9186
vn 0.9969 -0.0788 -0.0000
vn -0.9969 -0.0788 -0.0000
vn -0.0000 1.0000 -0.0000
vn -0.9186 0.3952 -0.0000
vn -0.0000 0.3952 0.9186
vt 0.625000 0.000000
vt 0.375000 0.250000
vt 0.375000 0.000000
vt 0.625000 0.250000
vt 0.375000 0.500000
vt 0.625000 0.500000
vt 0.375000 0.750000
vt 0.625000 0.750000
vt 0.375000 1.000000
vt 0.125000 0.750000
vt 0.125000 0.500000
vt 0.625000 1.000000
vt 0.875000 0.500000
vt 0.875000 0.750000
s 0
f 2/1/1 3/2/1 1/3/1
f 4/4/2 7/5/2 3/2/2
f 8/6/3 5/7/3 7/5/3
f 6/8/4 1/9/4 5/7/4
f 7/5/5 1/10/5 3/11/5
f 4/4/6 12/6/6 8/6/6
f 10/4/7 16/6/7 12/6/7
f 8/6/8 11/8/8 6/8/8
f 2/1/9 10/4/9 4/4/9
f 6/8/10 9/12/10 2/12/10
f 2/1/1 4/4/1 3/2/1
f 4/4/2 8/6/2 7/5/2
f 8/6/3 6/8/3 5/7/3
f 6/8/4 2/12/4 1/9/4
f 7/5/5 5/7/5 1/10/5
f 4/4/6 10/4/6 12/6/6
f 11/8/11 13/12/11 9/12/11
f 8/6/8 12/6/8 11/8/8
f 2/1/9 9/1/9 10/4/9
f 6/8/10 11/8/10 9/12/10
f 16/6/12 19/8/12 15/8/12
f 14/4/13 20/6/13 16/6/13
f 12/6/14 15/8/14 11/8/14
f 9/1/15 14/4/15 10/4/15
f 18/13/16 19/8/16 20/6/16
f 18/13/16 17/14/16 19/8/16
f 13/1/17 18/4/17 14/4/17
f 15/8/18 17/12/18 13/12/18
f 10/4/7 14/4/7 16/6/7
f 11/8/11 15/8/11 13/12/11
f 16/6/12 20/6/12 19/8/12
f 14/4/13 18/4/13 20/6/13
f 12/6/14 16/6/14 15/8/14
f 9/1/15 13/1/15 14/4/15
f 13/1/17 17/1/17 18/4/17
f 15/8/18 19/8/18 17/12/18
