# Blender 4.1.1
# www.blender.org
mtllib skos.mtl
o Cube
v -0.276616 -0.276616 0.276616
v -0.276616 0.276616 0.276616
v -0.276616 -0.276616 -0.276616
v -0.276616 0.276616 -0.276616
v 0.276616 -0.276616 0.276616
v 0.276616 0.276616 0.276616
v 0.276616 -0.276616 -0.276616
v 0.276616 0.276616 -0.276616
v -0.276616 0.975424 0.276616
v -0.276616 0.975424 -0.276616
v 0.276616 0.975424 0.276616
v 0.276616 0.975424 -0.276616
v -0.006435 1.638272 0.006435
v -0.006435 1.638272 -0.006435
v 0.006435 1.638272 0.006435
v 0.006435 1.638272 -0.006435
vn -1.0000 -0.0000 -0.0000
vn -0.0000 -0.0000 -1.0000
vn 1.0000 -0.0000 -0.0000
vn -0.0000 -0.0000 1.0000
vn -0.0000 -1.0000 -0.0000
vn -0.0000 0.3775 -0.9260
vn -0.0000 0.3775 0.9260
vn -0.0000 1.0000 -0.0000
vn 0.9260 0.3775 -0.0000
vn -0.9260 0.3775 -0.0000
vt 0.625000 0.000000
vt 0.375000 0.250000
vt 0.375000 0.000000
vt 0.625000 0.250000
vt 0.375000 0.500000
vt 0.625000 0.500000
vt 0.375000 0.750000
vt 0.625000 0.750000
vt 0.375000 1.000000
vt 0.125000 0.750000
vt 0.125000 0.500000
vt 0.625000 1.000000
vt 0.875000 0.500000
vt 0.875000 0.750000
s 0
f 2/1/1 3/2/1 1/3/1
f 4/4/2 7/5/2 3/2/2
f 8/6/3 5/7/3 7/5/3
f 6/8/4 1/9/4 5/7/4
f 7/5/5 1/10/5 3/11/5
f 4/4/2 12/6/2 8/6/2
f 10/4/6 16/6/6 12/6/6
f 8/6/3 11/8/3 6/8/3
f 2/1/1 10/4/1 4/4/1
f 6/8/4 9/12/4 2/12/4
f 2/1/1 4/4/1 3/2/1
f 4/4/2 8/6/2 7/5/2
f 8/6/3 6/8/3 5/7/3
f 6/8/4 2/12/4 1/9/4
f 7/5/5 5/7/5 1/10/5
f 4/4/2 10/4/2 12/6/2
f 11/8/7 13/12/7 9/12/7
f 8/6/3 12/6/3 11/8/3
f 2/1/1 9/1/1 10/4/1
f 6/8/4 11/8/4 9/12/4
f 14/13/8 15/8/8 16/6/8
f 14/13/8 13/14/8 15/8/8
f 12/6/9 15/8/9 11/8/9
f 9/1/10 14/4/10 10/4/10
f 10/4/6 14/4/6 16/6/6
f 11/8/7 15/8/7 13/12/7
f 12/6/9 16/6/9 15/8/9
f 9/1/10 13/1/10 14/4/10
